<?xml version="1.0" encoding="UTF-8" standalone="no"?>
<!DOCTYPE svg PUBLIC "-//W3C//DTD SVG 20010904//EN"
              "http://www.w3.org/TR/2001/REC-SVG-20010904/DTD/svg10.dtd">

<svg xmlns="http://www.w3.org/2000/svg"
     width="160.494mm" height="160.494mm"
     viewBox="0 0 455 455">
  <path id="Zaznaczenie"
        fill="none" stroke="black" stroke-width="1"
        d="M 218.00,21.21
           C 218.00,21.21 241.00,21.21 241.00,21.21
             241.00,21.21 250.00,21.83 250.00,21.83
             271.21,23.89 290.13,27.83 310.00,35.80
             335.15,45.89 358.49,61.31 377.91,80.17
             434.76,135.37 453.73,222.76 427.31,297.00
             417.93,323.36 403.00,347.47 384.08,368.00
             368.09,385.36 349.17,400.16 328.00,410.75
             292.12,428.70 263.92,434.46 224.00,434.00
             207.38,433.80 188.96,429.98 173.00,425.42
             155.42,420.41 135.24,411.05 120.00,401.00
             35.96,345.58 2.73,238.77 42.43,146.00
             64.91,93.44 109.13,51.86 163.00,32.69
             176.76,27.80 193.49,24.03 208.00,22.28
             208.00,22.28 218.00,21.21 218.00,21.21 Z
           M 245.00,122.00
           C 245.00,122.00 224.00,122.00 224.00,122.00
             224.00,122.00 224.00,213.00 224.00,213.00
             224.00,213.00 133.00,213.00 133.00,213.00
             133.00,213.00 133.00,234.00 133.00,234.00
             133.00,234.00 224.00,234.00 224.00,234.00
             224.00,234.00 224.00,325.00 224.00,325.00
             224.00,325.00 245.00,325.00 245.00,325.00
             245.00,325.00 245.00,234.00 245.00,234.00
             245.00,234.00 336.00,234.00 336.00,234.00
             336.00,234.00 336.00,213.00 336.00,213.00
             336.00,213.00 245.00,213.00 245.00,213.00
             245.00,213.00 245.00,122.00 245.00,122.00 Z" />
</svg>
